<svg width="120" height="16" viewBox="0 0 120 16" fill="none" xmlns="http://www.w3.org/2000/svg">
<path d="M0.984638 15L3.30948 0.99626H4.58814L2.45476 13.8513H9.12841L8.93696 15H0.984638ZM15.6927 15.2188C14.7718 15.2188 13.9969 14.9863 13.3678 14.5214C12.7388 14.0518 12.2943 13.4022 12.0345 12.5726C11.7746 11.7429 11.7313 10.7857 11.9045 9.70073C12.0778 8.64316 12.4219 7.71322 12.937 6.91093C13.4567 6.10407 14.0949 5.47727 14.8516 5.03054C15.6083 4.57925 16.4311 4.3536 17.3201 4.3536C18.2454 4.3536 19.0204 4.58837 19.6449 5.05789C20.274 5.52742 20.7184 6.17701 20.9783 7.00665C21.2427 7.8363 21.2882 8.79587 21.115 9.88535C20.9418 10.9384 20.5953 11.866 20.0757 12.6683C19.556 13.4661 18.9178 14.0906 18.1611 14.5419C17.4089 14.9932 16.5861 15.2188 15.6927 15.2188ZM15.7063 14.1043C16.4539 14.1043 17.1195 13.906 17.703 13.5094C18.291 13.1082 18.7765 12.5749 19.1594 11.9093C19.5423 11.2392 19.7999 10.503 19.9321 9.70073C20.0552 8.9349 20.0415 8.23061 19.8911 7.58786C19.7406 6.94511 19.4512 6.43 19.0227 6.04253C18.5942 5.65506 18.0243 5.46132 17.3132 5.46132C16.5702 5.46132 15.9046 5.66417 15.3166 6.06988C14.7285 6.47103 14.2431 7.00893 13.8601 7.68359C13.4772 8.35369 13.222 9.08761 13.0943 9.88535C12.9667 10.6557 12.9758 11.36 13.1217 11.9982C13.2721 12.6364 13.5616 13.147 13.9901 13.5299C14.4231 13.9128 14.9952 14.1043 15.7063 14.1043ZM31.3631 6.80152L30.1939 7.10238C30.1346 6.78785 30.0252 6.50522 29.8656 6.2545C29.7107 5.99922 29.485 5.79865 29.1887 5.65278C28.897 5.50235 28.514 5.42713 28.04 5.42713C27.3288 5.42713 26.7157 5.60035 26.2006 5.9468C25.6855 6.28869 25.3846 6.72631 25.298 7.25965C25.2251 7.70639 25.3185 8.06879 25.5784 8.34686C25.8428 8.62492 26.2849 8.84373 26.9049 9.00328L28.4366 9.39303C29.2844 9.61184 29.8884 9.95373 30.2486 10.4187C30.6132 10.8837 30.7386 11.4717 30.6246 12.1828C30.5243 12.7754 30.2714 13.2997 29.8656 13.7555C29.4645 14.2114 28.9494 14.5692 28.3203 14.8291C27.6958 15.0889 26.9983 15.2188 26.228 15.2188C25.1932 15.2188 24.3795 14.9863 23.7869 14.5214C23.1988 14.0564 22.8843 13.3863 22.8433 12.5111L24.0672 12.2375C24.1037 12.8575 24.3157 13.327 24.7031 13.6461C25.0952 13.9652 25.6467 14.1248 26.3579 14.1248C27.1693 14.1248 27.8508 13.9401 28.4024 13.5709C28.9539 13.2017 29.2708 12.7458 29.3528 12.2034C29.4303 11.7749 29.3505 11.4193 29.1135 11.1367C28.881 10.854 28.4844 10.6443 27.9237 10.5076L26.2895 10.0973C25.4097 9.87396 24.7875 9.52523 24.4228 9.05115C24.0627 8.5725 23.9419 7.98218 24.0604 7.28016C24.1561 6.70123 24.3977 6.19296 24.7852 5.75534C25.1727 5.31773 25.6627 4.97584 26.2553 4.72968C26.8479 4.47896 27.4952 4.3536 28.1972 4.3536C29.1636 4.3536 29.8998 4.57241 30.4058 5.01003C30.9118 5.44309 31.2309 6.04025 31.3631 6.80152ZM38.6983 4.49719L38.5274 5.55705H33.5085L33.6862 4.49719H38.6983ZM35.6624 1.9809H36.8863L35.1769 12.2581C35.1039 12.6957 35.1222 13.0398 35.2316 13.2906C35.341 13.5367 35.5096 13.7122 35.7376 13.8171C35.9655 13.9174 36.2162 13.9675 36.4897 13.9675C36.6493 13.9675 36.786 13.9584 36.9 13.9401C37.0185 13.9174 37.1234 13.8946 37.2145 13.8718L37.3034 14.9726C37.1712 15.0182 37.014 15.0593 36.8316 15.0957C36.6493 15.1368 36.4305 15.1573 36.1752 15.1573C35.7285 15.1573 35.3159 15.0593 34.9376 14.8632C34.5592 14.6672 34.272 14.3755 34.076 13.988C33.88 13.6005 33.8276 13.1196 33.9187 12.5452L35.6624 1.9809ZM49.8387 15.1915C48.9179 15.1915 48.1247 15.0228 47.4592 14.6855C46.7937 14.3481 46.2808 13.8854 45.9207 13.2974C45.5606 12.7093 45.3805 12.037 45.3805 11.2803C45.3805 10.6968 45.5036 10.1794 45.7498 9.72808C46.0005 9.27223 46.3447 8.85057 46.7823 8.4631C47.2244 8.07107 47.7327 7.67903 48.3071 7.287L50.3311 5.78269C50.7277 5.52286 51.0445 5.24479 51.2815 4.94849C51.5231 4.65218 51.6439 4.26471 51.6439 3.78607C51.6439 3.4305 51.4867 3.08634 51.1721 2.75356C50.8621 2.42079 50.4541 2.25441 49.9482 2.25441C49.5926 2.25441 49.2781 2.34558 49.0045 2.52792C48.7356 2.7057 48.5236 2.93363 48.3686 3.2117C48.2182 3.48521 48.143 3.76783 48.143 4.05958C48.143 4.38779 48.2319 4.72056 48.4097 5.05789C48.592 5.39066 48.8222 5.73255 49.1003 6.08356C49.3829 6.43 49.6746 6.78557 49.9755 7.15025L56.403 15H54.4611L49.155 8.59985C48.6627 8.00725 48.2159 7.46934 47.8148 6.98614C47.4136 6.50294 47.0945 6.02657 46.8575 5.55705C46.6204 5.08752 46.5019 4.57925 46.5019 4.03223C46.5019 3.40315 46.641 2.85157 46.919 2.37749C47.2017 1.89884 47.596 1.52733 48.102 1.26293C48.6125 0.993981 49.2097 0.859505 49.8935 0.859505C50.5955 0.859505 51.1995 0.99626 51.7055 1.26977C52.2115 1.53872 52.6012 1.89657 52.8747 2.3433C53.1482 2.78547 53.285 3.2664 53.285 3.78607C53.285 4.45617 53.1186 5.03738 52.7858 5.5297C52.4531 6.02202 51.9995 6.48015 51.4251 6.90409L48.6353 8.98277C48.0062 9.44774 47.58 9.89903 47.3566 10.3366C47.1333 10.7743 47.0216 11.0888 47.0216 11.2803C47.0216 11.7179 47.1356 12.1259 47.3635 12.5042C47.5914 12.8826 47.9128 13.188 48.3276 13.4205C48.7424 13.653 49.2279 13.7692 49.784 13.7692C50.3128 13.7692 50.8279 13.6575 51.3294 13.4342C51.8308 13.2062 52.2844 12.878 52.6901 12.4495C53.1004 12.021 53.424 11.5059 53.6611 10.9042C53.9027 10.3025 54.0235 9.62552 54.0235 8.87336H55.5825C55.5825 9.8033 55.4753 10.5623 55.2611 11.1503C55.0468 11.7384 54.8052 12.1988 54.5363 12.5316C54.2673 12.8643 54.0508 13.1128 53.8867 13.2769C53.832 13.3453 53.7819 13.4136 53.7363 13.482C53.6907 13.5504 53.6405 13.6188 53.5858 13.6871C53.1346 14.1931 52.5647 14.5715 51.8764 14.8222C51.1881 15.0684 50.5088 15.1915 49.8387 15.1915ZM63.345 15V0.99626H72.617V3.43734H66.3058V6.77417H72.0016V9.21525H66.3058V15H63.345ZM78.5283 15.2051C77.4662 15.2051 76.5476 14.9795 75.7727 14.5282C75.0023 14.0723 74.4074 13.4387 73.988 12.6273C73.5686 11.8113 73.3589 10.8654 73.3589 9.78962C73.3589 8.7047 73.5686 7.75653 73.988 6.94511C74.4074 6.12914 75.0023 5.49551 75.7727 5.04422C76.5476 4.58837 77.4662 4.36044 78.5283 4.36044C79.5904 4.36044 80.5067 4.58837 81.2771 5.04422C82.052 5.49551 82.6492 6.12914 83.0686 6.94511C83.488 7.75653 83.6976 8.7047 83.6976 9.78962C83.6976 10.8654 83.488 11.8113 83.0686 12.6273C82.6492 13.4387 82.052 14.0723 81.2771 14.5282C80.5067 14.9795 79.5904 15.2051 78.5283 15.2051ZM78.542 12.9487C79.0252 12.9487 79.4286 12.8119 79.7523 12.5384C80.0759 12.2603 80.3198 11.882 80.4839 11.4033C80.6526 10.9247 80.7369 10.38 80.7369 9.76911C80.7369 9.15827 80.6526 8.61353 80.4839 8.13489C80.3198 7.65624 80.0759 7.27789 79.7523 6.99982C79.4286 6.72175 79.0252 6.58271 78.542 6.58271C78.0542 6.58271 77.6439 6.72175 77.3112 6.99982C76.983 7.27789 76.7345 7.65624 76.5659 8.13489C76.4018 8.61353 76.3197 9.15827 76.3197 9.76911C76.3197 10.38 76.4018 10.9247 76.5659 11.4033C76.7345 11.882 76.983 12.2603 77.3112 12.5384C77.6439 12.8119 78.0542 12.9487 78.542 12.9487ZM92.3269 10.5281V4.49719H95.2398V15H92.4431V13.0923H92.3337C92.0967 13.7077 91.7024 14.2023 91.1508 14.5761C90.6038 14.9499 89.936 15.1368 89.1473 15.1368C88.4453 15.1368 87.8277 14.9772 87.2943 14.6581C86.761 14.339 86.3439 13.8854 86.043 13.2974C85.7467 12.7093 85.5963 12.0051 85.5917 11.1845V4.49719H88.5046V10.6649C88.5091 11.2848 88.6755 11.7749 89.0037 12.135C89.332 12.4951 89.7719 12.6752 90.3234 12.6752C90.6744 12.6752 91.0027 12.5954 91.3081 12.4358C91.6135 12.2717 91.8597 12.0301 92.0466 11.711C92.238 11.3919 92.3315 10.9976 92.3269 10.5281ZM100.483 8.92807V15H97.5698V4.49719H100.346V6.35023H100.469C100.701 5.73939 101.091 5.25619 101.638 4.90062C102.185 4.5405 102.849 4.36044 103.628 4.36044C104.357 4.36044 104.993 4.51999 105.536 4.83908C106.078 5.15818 106.5 5.61403 106.801 6.20664C107.102 6.79468 107.252 7.49669 107.252 8.31267V15H104.339V8.83234C104.344 8.18959 104.18 7.68815 103.847 7.32803C103.514 6.96335 103.056 6.78101 102.472 6.78101C102.08 6.78101 101.734 6.86534 101.433 7.03401C101.137 7.20267 100.904 7.44883 100.736 7.77248C100.572 8.09158 100.487 8.47677 100.483 8.92807ZM113.418 15.1709C112.62 15.1709 111.898 14.9658 111.25 14.5555C110.608 14.1407 110.097 13.5322 109.719 12.7299C109.345 11.923 109.158 10.9338 109.158 9.76227C109.158 8.55883 109.352 7.55823 109.739 6.76049C110.127 5.9582 110.642 5.35875 111.285 4.96216C111.932 4.56101 112.641 4.36044 113.411 4.36044C113.999 4.36044 114.489 4.46073 114.881 4.6613C115.278 4.85732 115.597 5.10348 115.839 5.39978C116.085 5.69152 116.272 5.97871 116.399 6.26134H116.488V0.99626H119.394V15H116.522V13.3179H116.399C116.262 13.6097 116.069 13.8991 115.818 14.1863C115.572 14.4689 115.251 14.7037 114.854 14.8906C114.462 15.0775 113.983 15.1709 113.418 15.1709ZM114.341 12.8529C114.811 12.8529 115.207 12.7253 115.531 12.47C115.859 12.2102 116.11 11.8478 116.283 11.3828C116.461 10.9179 116.55 10.3731 116.55 9.7486C116.55 9.12408 116.463 8.58162 116.29 8.12121C116.117 7.6608 115.866 7.30524 115.538 7.05452C115.209 6.8038 114.811 6.67844 114.341 6.67844C113.862 6.67844 113.459 6.80836 113.131 7.06819C112.803 7.32803 112.554 7.68815 112.385 8.14856C112.217 8.60897 112.132 9.14232 112.132 9.7486C112.132 10.3594 112.217 10.8996 112.385 11.3691C112.559 11.8341 112.807 12.1988 113.131 12.4632C113.459 12.723 113.862 12.8529 114.341 12.8529Z" fill="#381D2A"/>
</svg>
